<?xml version="1.0" encoding="UTF-8" standalone="no"?>
<svg width="49px" height="42px" viewBox="0 0 49 42" version="1.1" xmlns="http://www.w3.org/2000/svg" xmlns:xlink="http://www.w3.org/1999/xlink" xmlns:sketch="http://www.bohemiancoding.com/sketch/ns">
    <!-- Generator: Sketch 3.5.2 (25235) - http://www.bohemiancoding.com/sketch -->
    <title>Group</title>
    <desc>Created with Sketch.</desc>
    <defs></defs>
    <g id="Page-1" stroke="none" stroke-width="1" fill="none" fill-rule="evenodd" sketch:type="MSPage">
        <g id="Plugins" sketch:type="MSArtboardGroup" transform="translate(-161.000000, -118.000000)" stroke="#4A4A4A">
            <g id="Group" sketch:type="MSLayerGroup" transform="translate(162.000000, 119.000000)">
                <path d="M11.5804147,5.24328374 C12.436295,4.79597345 12.4617773,3.84288934 11.520592,2.1029969 C10.5794067,0.363104459 9.09000985,-0.295267971 8.29395385,0.12077668 C7.49789704,0.53682133 7.70961452,1.8629497 8.65079905,3.60284222 C9.5919844,5.34273466 10.7245352,5.69059403 11.5804147,5.24328374 L11.5804147,5.24328374 Z M22.3428058,29.8228152 C23.198686,29.375505 23.2241684,28.422421 22.2829831,26.6825287 C21.3417977,24.9426364 19.8524009,24.2842633 19.0563449,24.7003084 C18.2602881,25.1163534 18.4720056,26.4424818 19.4131901,28.1823741 C20.3543755,29.9222664 21.4869263,30.2701254 22.3428058,29.8228152 L22.3428058,29.8228152 Z M8.65719425,29.8228152 C7.80131396,29.375505 7.77583158,28.422421 8.71701693,26.6825287 C9.65820227,24.9426364 11.1475991,24.2842633 11.9436551,24.7003084 C12.7397119,25.1163534 12.5279944,26.4424818 11.5868099,28.1823741 C10.6456245,29.9222664 9.51307373,30.2701254 8.65719425,29.8228152 L8.65719425,29.8228152 Z M19.1437683,5.24328374 C18.287888,4.79597345 18.2624056,3.84288934 19.2035909,2.1029969 C20.1447763,0.363104459 21.6341731,-0.295267971 22.4302291,0.12077668 C23.2262859,0.53682133 23.0145684,1.8629497 22.0733839,3.60284222 C21.1321985,5.34273466 19.9996477,5.69059403 19.1437683,5.24328374 L19.1437683,5.24328374 Z M5.87577731,10.948417 C6.27004506,10.0779953 5.69315685,9.31153432 3.86170251,8.5100394 C2.03024898,7.7085444 0.444214353,8.09104917 0.0775045068,8.90063116 C-0.28920534,9.71021314 0.708256607,10.6270957 2.53971094,11.4285906 C4.37116447,12.2300856 5.48150955,11.8188388 5.87577731,10.948417 L5.87577731,10.948417 Z M25.1242227,10.948417 C24.7299549,10.0779953 25.3068432,9.31153432 27.1382975,8.5100394 C28.969751,7.7085444 30.5557856,8.09104917 30.9224955,8.90063116 C31.2892053,9.71021314 30.2917434,10.6270957 28.4602891,11.4285906 C26.6288355,12.2300856 25.5184904,11.8188388 25.1242227,10.948417 L25.1242227,10.948417 Z M30.882223,21.495368 C31.2764908,20.6249463 30.6996026,19.8584852 28.8681482,19.0569903 C27.0366947,18.2554954 25.4506601,18.6380002 25.0839502,19.4475821 C24.7172404,20.2571641 25.7147023,21.1740467 27.5461567,21.9755416 C29.3776102,22.7770365 30.4879553,22.3657897 30.882223,21.495368 L30.882223,21.495368 Z M0.117776984,21.495368 C-0.276490772,20.6249463 0.300397444,19.8584852 2.13185178,19.0569903 C3.96330531,18.2554954 5.54933994,18.6380002 5.91604978,19.4475821 C6.28275963,20.2571641 5.28529768,21.1740467 3.45384335,21.9755416 C1.62238982,22.7770365 0.512044741,22.3657897 0.117776984,21.495368 L0.117776984,21.495368 Z M15.5538897,23.1145321 C20.0089469,23.1145321 23.6204851,19.5646511 23.6204851,15.185651 C23.6204851,10.8066508 20.0089469,7.25676976 15.5538897,7.25676976 C11.0988317,7.25676976 7.48729431,10.8066508 7.48729431,15.185651 C7.48729431,19.5646511 11.0988317,23.1145321 15.5538897,23.1145321 L15.5538897,23.1145321 Z" id="light" fill="#D5DE22" sketch:type="MSShapeGroup"></path>
                <path d="M12,40 C7.02944,40 3,35.9705627 3,31 C3,27.8488082 4.61951,25.0758727 7.07161,23.4681104 C7.02444,23.1522598 7,22.8289841 7,22.5 C7,18.9101491 9.91015,16 13.5,16 C15.2454,16 16.83013,16.6879452 17.99781,17.8074758 C19.79321,13.7953773 23.82016,11 28.5,11 C34.75844,11 39.84922,15.9993063 39.99671,22.222271 C44.00634,23.1305147 47,26.7156541 47,31 C47,35.9705627 42.97056,40 38,40 L12,40 L12,40 Z" id="iCloud" fill="#AFD2FF" sketch:type="MSShapeGroup"></path>
            </g>
        </g>
    </g>
</svg>